<?xml version="1.0" encoding="utf-8"?>
<!-- Generator: Adobe Illustrator 25.0.0, SVG Export Plug-In . SVG Version: 6.00 Build 0)  -->
<svg version="1.1" id="Capa_1" xmlns="http://www.w3.org/2000/svg" xmlns:xlink="http://www.w3.org/1999/xlink" x="0px" y="0px"
	 width="211px" height="33px" viewBox="0 0 211 33" style="enable-background:new 0 0 211 33;" xml:space="preserve">
<style type="text/css">
	.st0{fill-rule:evenodd;clip-rule:evenodd;fill:#D82238;}
</style>
<g>
	<g>
		<g>
			<path class="st0" d="M160.8,11.9c0,3.6,0,7.1,0,10.7c0,1.4,0.6,2,1.9,2c1.2,0,1.8-0.6,1.8-2c0-3.2,0-6.4,0-9.7
				c0-1.4-0.3-2.4-1.5-3.1c-0.4-0.2-0.9-0.5-0.7-1.1c0.2-0.7,0.8-0.4,1.1-0.4c2.2-0.3,4.5-0.5,6.7-0.7c0.8-0.1,1.1,0.2,1.1,1.1
				c-0.1,4.6,0,9.2-0.1,13.9c0,1.1,0.2,1.8,1.4,2c0.5,0.1,0.7,0.3,0.7,0.9c0,0.6-0.5,0.5-0.8,0.5c-6.5,0-13,0-19.4,0
				c-0.3,0-0.8,0.2-0.9-0.5c-0.1-0.6,0.2-0.9,0.7-1c1.2-0.1,1.4-0.9,1.4-2c0-5.9,0-11.8,0-17.7c0-1.3-0.4-2.1-1.6-2.6
				c-0.4-0.2-0.9-0.4-0.8-1c0.1-0.7,0.6-0.5,1-0.5c2.3-0.2,4.6-0.4,7-0.6c0.7-0.1,1.1,0.1,1.1,0.9C160.8,4.7,160.9,8.3,160.8,11.9
				C160.8,11.9,160.8,11.9,160.8,11.9z"/>
			<path class="st0" d="M123.6,23.7c-1,0.6-1.8,1.1-2.7,1.6c-0.7,0.4-1.4,0.6-2.1,0.8c-4,0.9-6.3-0.9-6.3-5c0-2.9-0.1-5.8,0-8.6
				c0-1.2-0.3-2-1.4-2.6c-0.4-0.2-1-0.4-0.8-1.1c0.2-0.6,0.7-0.3,1.1-0.4c2-0.2,4-0.5,6.1-0.7c1.6-0.2,1.7-0.1,1.7,1.5
				c0,3.6,0,7.1,0,10.7c0,2.5,0.8,3.1,3.2,2.6c0.8-0.2,1.1-0.5,1.1-1.3c-0.1-2.9-0.1-5.8,0-8.8c0-1.1-0.3-2-1.3-2.5
				c-0.4-0.2-1-0.4-0.9-1.1c0.2-0.7,0.9-0.4,1.3-0.5c2.1-0.3,4.1-0.4,6.2-0.7c1.1-0.1,1.4,0.3,1.4,1.3c0,4.2,0,8.4,0,12.6
				c0,1.1,0.2,2,1.4,2.3c0.5,0.1,0.6,0.4,0.6,0.8c0,0.6-0.5,0.5-0.8,0.5c-2,0.3-4.1,0.6-6.1,0.9c-1.1,0.2-1.6-0.1-1.4-1.3
				C123.6,24.5,123.6,24.1,123.6,23.7z"/>
			<path class="st0" d="M23.4,22.9c-0.2,3-0.2,3-3.2,3c-5.3,0-10.6,0-15.9,0c-0.4,0-1,0.3-1.1-0.5c-0.1-0.7,0.3-0.9,0.9-1
				c1.5-0.2,1.6-1.3,1.6-2.4c0-2.2,0-4.4,0-6.6c0-3.1,0-6.1,0-9.1c0-1.3-0.2-2.5-1.9-2.6c-0.6,0-0.6-0.4-0.6-0.9
				c0-0.6,0.5-0.5,0.8-0.5c3.6,0,7.3,0,10.9,0c0.4,0,0.9-0.2,0.9,0.5c0.1,0.7-0.4,0.8-0.8,0.8c-1.4,0.1-1.8,0.9-1.8,2.2
				c0,5.3,0,10.7,0,16c0,1.8,0.4,2.1,2.2,2.2c2.1,0.1,3.7-0.5,4.7-2.5c0.6-1.3,1.4-2.6,2-4c0.3-0.7,0.7-0.8,1.3-0.7
				c0.7,0.1,0.3,0.7,0.3,1.1c-0.1,0.9-0.1,1.7-0.1,2.8L23.4,22.9z"/>
			<path class="st0" d="M189.2,22.9c-2.3,3-6.8,4.2-10.8,2.9c-3.4-1.1-5.3-4.1-5.5-8.2c-0.3-7.3,5.1-10.1,11.1-10
				c1.3,0,2.5,0.2,3.7,0.7c1.4,0.7,2,1.9,1.7,3.3c-0.3,1.2-1.4,2.1-2.7,2c-1.5-0.1-2.2-0.9-2.6-2.5c-0.2-0.7,0.2-1.9-1.1-2
				c-1.2-0.1-2.3,0.4-2.7,1.5c-1.3,3.4-1.4,6.9,0.4,10.2c0.9,1.7,2.7,2,4.4,1.9c1.5-0.1,2.8-0.6,4.1-1.1
				C189.3,21.9,189.3,22.7,189.2,22.9z"/>
			<path class="st0" d="M167.8,0c2,0.1,3.4,1.4,3.4,3.4c0,1.9-1.7,3.3-3.7,3.2c-2-0.1-3.5-1.6-3.4-3.4C164.1,1.3,165.7,0,167.8,0z"
				/>
			<path class="st0" d="M126.2,3c0,1-0.4,1.8-1.4,2c-2,0.5-4,0.8-5.9,1.2c-0.2,0.1-0.5,0.1-0.6-0.2c-0.2-0.3-0.1-0.6,0.2-0.8
				c1.4-1.3,2.7-2.7,4.1-4c0.7-0.7,1.6-0.8,2.5-0.4C125.8,1.3,126.2,2.1,126.2,3z"/>
			<path class="st0" d="M72.5,24.5c-0.9-0.1-1.3-0.8-1.7-1.4c-1.6-2.4-2.9-5-4.1-7.6c-0.4-0.8-0.5-1.2,0.6-1.5
				c1.4-0.5,2.4-1.5,2.9-3c1.2-3.8-0.5-6.9-4.3-7.9c-0.7-0.2-1.5-0.4-2.2-0.4C58.7,2,53.7,2.4,48.8,2.3c-0.4,0-0.7-0.1-0.8,0.5
				c0,0.5,0.2,0.8,0.7,0.8c1.6,0.1,1.7,1.2,1.7,2.4c0,2.6,0,5.3,0,7.9c0,2.8,0,5.5,0,8.3c0,1.2-0.3,2.1-1.7,2.2
				c-0.6,0-0.8,0.4-0.7,0.9c0,0.6,0.5,0.5,0.8,0.5c3.6,0,7.1,0,10.7,0c0.4,0,0.8,0.1,0.9-0.6c0-0.6-0.3-0.8-0.7-0.8
				c-1.4-0.1-1.6-1.1-1.6-2.3c0-1.7,0-3.3,0-5c0-0.4-0.4-1.1,0.5-1.3c0.8-0.1,1,0.4,1.2,1c1.1,2.8,2.3,5.5,3.9,8.1
				c0.3,0.5,0.6,0.9,1.3,0.8c2.5,0,4.9,0,7.4,0c0.3,0,0.7,0.1,0.7-0.4C73,25,73.1,24.6,72.5,24.5z M62.6,11.7
				c-0.2,1.2-0.7,2.2-2,2.5c-2,0.6-2.5,0.2-2.5-1.9c0-1.1,0-2.1,0-3.2c0-1.3,0-2.7,0-4.1c0-0.7,0.3-0.9,0.9-1.1
				c2.2-0.3,3.3,0.5,3.7,2.7C62.9,8.5,62.9,10.1,62.6,11.7z"/>
			<path class="st0" d="M110.1,12.5c-0.8-2.9-3.1-4.8-5.9-4.9c-2.3-0.1-4.2,0.9-6,2.5c0-0.4-0.1-0.7,0-0.9c0.1-1.6,0-1.7-1.6-1.5
				c-2,0.2-4,0.4-5.9,0.7c-0.4,0-0.9-0.2-1.1,0.3c-0.2,0.6,0.3,0.9,0.7,1.2c1.1,0.6,1.5,1.6,1.4,2.9c-0.1,5.7,0,11.4,0,17
				c0,1-0.2,1.7-1.3,1.8c-0.5,0.1-0.9,0.3-0.8,0.9c0.1,0.8,0.7,0.5,1.1,0.5c2.9,0,5.8,0,8.8,0c0.4,0,1,0.3,1.1-0.5
				c0.1-0.8-0.4-0.8-0.9-0.9c-1-0.1-1.3-0.7-1.2-1.6c0-0.5,0-0.9,0-1.4c0-0.8-0.3-1.8,0-2.2c0.5-0.6,1.5-0.1,2.3-0.1
				c4.8,0,8.1-2.1,9.3-6.1C110.7,17.6,110.8,15,110.1,12.5z M103.2,22.7c-0.5,1.8-2.2,2.5-3.8,1.7c-0.7-0.3-1.1-0.8-1.1-1.7
				c0.1-1.7,0-3.5,0-5.2c0-1.7,0.1-3.4,0-5.1c0-0.8,0.3-1.1,1-1.2c2.1-0.4,3.5,0.3,4,2.4C104,16.7,104,19.7,103.2,22.7z"/>
			<path class="st0" d="M152,14.1c-0.6-4.5-3.6-7-7.7-6.4c-1.7,0.2-3.1,1.1-4.4,2.3c0-3,0-5.7,0-8.5c0-1.1-0.3-1.3-1.3-1.2
				c-2.2,0.2-4.5,0.4-6.7,0.6c-0.3,0-0.8-0.1-0.9,0.5c-0.1,0.5,0.2,0.8,0.6,1c1.4,0.4,1.6,1.4,1.6,2.8c0,6,0,11.9,0,17.9
				c0,0.9,0.3,1.4,1.1,1.8c2.8,1.5,5.9,1.7,9,1.5c4.7-0.3,7.7-3,8.6-7.7C152.2,17,152.2,15.5,152,14.1z M144.8,22.5
				c-0.4,1.9-2,2.6-3.7,2c-0.9-0.3-1.4-0.8-1.3-1.9c0.1-1.6,0-3.3,0-5c0-1.7,0-3.5,0-5.2c0-0.8,0.3-1,1-1.2c2.2-0.5,3.6,0.3,4.1,2.4
				C145.6,16.6,145.5,19.6,144.8,22.5z"/>
			<path class="st0" d="M42.2,24.1c0-0.4-0.4-0.4-0.7-0.4c-1.3-0.1-1.6-0.9-1.6-2.1c0-2.9,0-5.8,0-8.8c0-2.9-1.2-4.4-4.1-5
				c-2.8-0.5-5.6-0.4-8.3,0.3c-1,0.3-1.8,0.7-2.5,1.5c-1,1.2-0.8,3,0.4,3.7c1.8,1.1,4.2,0.1,4.6-2c0.1-0.4,0.1-0.8,0.2-1.1
				c0.1-1,0.7-1.2,1.5-1c0.8,0.2,1.2,0.7,1.3,1.5c0.2,1,0.1,2.1,0.2,3.2c0.1,1.2-0.3,1.7-1.5,1.9c-1.8,0.3-3.6,0.8-5.3,1.7
				c-1.4,0.7-2.4,1.7-2.7,3.3c-0.1,0.3-0.1,1.5,0,1.8c0.3,1.9,1.5,3,3.3,3.4c2.1,0.4,4.1,0.3,5.8-1.3c0.2-0.2,0.4-0.7,0.9-0.1
				c1.8,2,5.9,2.2,8,0.6C42.2,24.8,42.2,24.5,42.2,24.1z M32.4,23.3c-0.7,0.2-1.4,0-1.7-0.7c-0.6-1.4-0.7-2.9,0-4.3
				c0.4-0.9,1.4-0.9,2.2-0.8c0.4,0,0.3,0.4,0.3,0.7c0,0.7,0,1.4,0,2c0,0.6,0,1.2,0,1.8C33.3,22.6,33.1,23.1,32.4,23.3z"/>
			<path class="st0" d="M207.7,24.1c0-0.4-0.4-0.4-0.7-0.5c-1.3-0.1-1.6-0.9-1.6-2.1c0-3,0-5.9,0-8.9c0-2.7-1.2-4.2-3.8-4.8
				c-2.4-0.5-4.8-0.4-7.2-0.1c-1.1,0.2-2.2,0.5-3.2,1.2c-1.1,0.8-1.5,2-1.2,3.1c0.4,1.2,1.3,1.6,2.5,1.6c1.6,0,2.5-0.5,2.9-1.8
				c0.2-0.6,0.3-1.2,0.3-1.9c0.1-0.7,0.5-0.9,1.1-0.9c1,0,1.5,0.6,1.7,1.5c0.3,1.3,0.1,2.5,0.2,3.8c0.1,0.8-0.3,1-1,1.2
				c-1.8,0.4-3.7,0.8-5.4,1.7c-1.6,0.8-2.9,1.8-3,3.8c0,0.6-0.1,1.2,0,1.8c0.4,1.7,1.5,2.7,3.2,3.1c2.2,0.5,4.2,0.3,6-1.2
				c0.2-0.2,0.3-0.8,0.8-0.2c1.9,2,5.9,2.3,8,0.6C207.7,24.9,207.7,24.5,207.7,24.1z M197.9,23.3c-0.7,0.1-1.4-0.1-1.7-0.8
				c-0.6-1.4-0.6-2.8,0-4.2c0.4-0.9,1.3-0.9,2.2-0.9c0.5,0,0.4,0.5,0.4,0.8c0,0.7,0,1.3,0,2c0,0.5,0,1.1,0,1.6
				C198.9,22.6,198.7,23.2,197.9,23.3z"/>
			<path class="st0" d="M80,16.1c3,0.1,5.9,0,8.9,0c0.8,0,1-0.2,1-1c-0.2-4.8-2.9-7.4-7.7-7.6c-3.9-0.2-7.4,1.9-8.9,5.4
				c-1.6,3.7-0.8,8.7,1.8,11.1c3.4,3.2,11,2.8,13.9-0.9c0.4-0.5,0.4-1,0.2-1.6c-1.3,0.7-2.7,1.1-4.1,1.2c-3.6,0.2-5.5-1-6-4.6
				c0-0.3-0.1-0.5-0.1-0.8C78.7,16.5,78.9,16.1,80,16.1z M79,12.5c0.1-0.8,0.3-1.6,0.7-2.3c0.4-0.7,1-1.2,1.8-1.1
				c0.9,0.1,1.3,0.6,1.6,1.4c0.4,1.1,0.3,2.2,0.4,3.3c0,0.5-0.3,0.6-0.7,0.6c-0.6,0-1.3,0.1-1.9,0.1C78.8,14.6,78.8,14.6,79,12.5z"
				/>
		</g>
	</g>
</g>
</svg>
