<?xml version="1.0" encoding="utf-8"?>
<!-- Generator: Adobe Illustrator 25.1.0, SVG Export Plug-In . SVG Version: 6.00 Build 0)  -->
<svg version="1.1" id="Capa_1" xmlns="http://www.w3.org/2000/svg" xmlns:xlink="http://www.w3.org/1999/xlink" x="0px" y="0px"
	 width="24px" height="24px" viewBox="0 0 24 24" style="enable-background:new 0 0 24 24;" xml:space="preserve">
<style type="text/css">
	.st0{fill:#FFFFFF;}
</style>
<g>
	<path class="st0" d="M24,13.4c0,0.3-0.2,0.4-0.4,0.4H6.2v3.1c0,0.2-0.1,0.3-0.3,0.4c-0.2,0.1-0.3,0-0.5-0.1l-5.3-4.8
		c0-0.1-0.1-0.2-0.1-0.3c0-0.2,0.1-0.3,0.1-0.4l5.3-4.9C5.6,6.7,5.8,6.7,6,6.7c0.2,0.1,0.3,0.2,0.3,0.4v3.1h17.3
		c0.2,0.1,0.4,0.2,0.4,0.5V13.4z"/>
</g>
</svg>
